<svg width="711" height="883" viewBox="0 0 711 883" fill="none" xmlns="http://www.w3.org/2000/svg">
  <g clip-path="url(#clip0_0_1)">
  <path d="M44.9579 781.225H91.2737C92.5577 781.242 93.7817 781.724 94.6772 782.565C95.5728 783.406 96.0669 784.537 96.0512 785.71V806.618C96.0678 807.79 95.5756 808.92 94.6821 809.761C93.7887 810.603 92.5669 811.086 91.2841 811.106H57.4991C46.8633 811.106 37.059 817.458 35.3267 827.343C34.9644 829.275 34.7422 831.227 34.6616 833.185C34.5646 836.714 35.254 840.652 36.1547 844.187C37.738 850.422 43.6968 854.796 50.5044 854.796H61.4069C62.5485 854.78 63.636 854.35 64.4306 853.601C65.2251 852.852 65.6615 851.845 65.6439 850.802V840.99C60.5581 843.624 55.4135 840.224 55.4135 835.695V824.023C55.3968 822.851 55.8891 821.72 56.7825 820.879C57.6759 820.038 58.8978 819.555 60.1805 819.535H91.2633C91.9012 819.542 92.5311 819.664 93.1172 819.894C93.7032 820.125 94.2338 820.458 94.6785 820.876C95.1232 821.294 95.4734 821.788 95.709 822.329C95.9445 822.871 96.0608 823.449 96.0512 824.032V877.281C96.0688 878.453 95.5769 879.584 94.6834 880.426C93.7899 881.268 92.5675 881.752 91.2841 881.772H41.2197C18.455 881.772 -0.00689697 864.39 -0.00689697 842.95V823.57C3.1874e-05 800.184 20.1283 781.225 44.9579 781.225Z" fill="white"/>
  <path d="M139.062 781.684H115.157C113.874 781.704 112.652 782.188 111.758 783.03C110.865 783.871 110.373 785.002 110.39 786.175V876.977C110.374 878.149 110.866 879.279 111.759 880.12C112.653 880.961 113.875 881.445 115.157 881.465H194.029C195.311 881.445 196.533 880.961 197.427 880.12C198.32 879.279 198.812 878.149 198.796 876.977V859.591C198.812 858.419 198.32 857.289 197.427 856.448C196.533 855.607 195.311 855.123 194.029 855.103H148.596C147.313 855.083 146.09 854.599 145.197 853.758C144.303 852.916 143.811 851.785 143.829 850.612V786.175C143.847 785.002 143.355 783.871 142.461 783.03C141.568 782.188 140.345 781.704 139.062 781.684Z" fill="white"/>
  <path d="M442.906 780.013H420.387C419.104 780.033 417.882 780.516 416.989 781.357C416.095 782.198 415.603 783.329 415.62 784.501V838.882C415.62 854.505 424.974 868.887 439.871 875.72C475.707 892.147 511.037 868.001 511.037 836.081V822.006C511.048 821.53 510.956 821.055 510.766 820.611C510.576 820.167 510.291 819.762 509.929 819.418C509.567 819.075 509.134 818.8 508.655 818.61C508.177 818.419 507.662 818.318 507.14 818.31H483.893C482.61 818.33 481.388 818.814 480.494 819.655C479.601 820.497 479.109 821.628 479.126 822.801V840.781C479.126 843.763 477.048 847.681 474.508 849.438C461.648 858.278 447.673 849.827 447.673 838.3V784.494C447.688 783.323 447.194 782.195 446.301 781.355C445.408 780.515 444.187 780.033 442.906 780.013Z" fill="white"/>
  <path d="M556.937 781.839H544.833C533.947 781.839 524.24 788.527 521.202 798.37C513.285 824.007 533.535 847.593 559.781 847.593H573.407C576.525 850.16 574.62 853.416 571.921 853.416H522.979C521.696 853.436 520.473 853.92 519.58 854.762C518.686 855.604 518.194 856.735 518.212 857.908V876.822C518.194 877.994 518.686 879.125 519.58 879.967C520.473 880.809 521.696 881.293 522.979 881.313H579.795C585.037 881.297 590.176 879.981 594.663 877.506C599.15 875.03 602.817 871.488 605.273 867.257C619.477 843.016 601.24 818.471 576.906 818.471H553.701C553.531 818.469 553.362 818.435 553.206 818.374C553.049 818.312 552.908 818.222 552.789 818.11C552.67 817.998 552.577 817.866 552.514 817.721C552.451 817.576 552.42 817.421 552.423 817.265V807.795C552.42 807.605 552.472 807.417 552.574 807.251C552.676 807.085 552.824 806.947 553.004 806.85C553.183 806.754 553.388 806.702 553.596 806.702C553.805 806.701 554.009 806.751 554.19 806.846C557.308 808.511 560.512 806.419 560.512 803.627V785.203C560.52 784.768 560.434 784.335 560.258 783.93C560.083 783.525 559.821 783.156 559.489 782.843C559.157 782.531 558.761 782.281 558.323 782.109C557.885 781.936 557.414 781.845 556.937 781.839Z" fill="white"/>
  <path d="M395.315 833.657L394.549 832.537C394.17 831.978 393.944 831.344 393.892 830.689C393.839 830.033 393.961 829.376 394.248 828.773L396.223 824.621C405.899 804.235 390.066 781.225 366.359 781.225H335.031C322.361 781.225 312.089 790.9 312.089 802.833V864.079C312.089 873.511 320.206 881.171 330.222 881.171H367.821C393.718 881.158 409.349 854.16 395.315 833.657ZM373.163 816.205C373.163 818.42 371.248 820.253 368.906 820.161C365.462 820.028 362.625 822.617 362.625 825.827V836.1C362.602 837.582 363.224 839.01 364.354 840.073C365.483 841.136 367.028 841.746 368.649 841.769C369.863 841.789 371.018 842.248 371.862 843.044C372.707 843.841 373.171 844.911 373.153 846.02V848.042C373.153 851.774 369.942 854.796 365.982 854.796H352.626C348.445 854.796 345.057 851.606 345.057 847.669V815.021C345.057 811.084 348.445 807.894 352.626 807.894H366.425C370.142 807.894 373.153 810.742 373.153 814.224L373.163 816.205Z" fill="white"/>
  <path d="M228.642 785.934C217.233 790.662 208.245 799.208 203.531 809.812C183.871 853.619 228.856 895.29 275.245 876.277C286.653 871.545 295.638 862.993 300.345 852.385C319.967 808.593 275.006 766.957 228.642 785.934ZM269.643 837.791C269.643 850.384 254.569 859.655 240.473 850.482C238.715 849.318 237.287 847.788 236.305 846.019C235.324 844.25 234.818 842.293 234.829 840.31V825.751C234.817 823.767 235.323 821.81 236.305 820.041C237.286 818.272 238.715 816.742 240.473 815.578C254.569 806.4 269.643 815.676 269.643 828.27V837.791Z" fill="white"/>
  <path d="M610.283 883C612.98 883 615.167 880.804 615.167 878.094C615.167 875.385 612.98 873.188 610.283 873.188C607.585 873.188 605.398 875.385 605.398 878.094C605.398 880.804 607.585 883 610.283 883Z" fill="white"/>
  <path d="M635.462 852.036H639.966C641.224 852.055 642.423 852.529 643.3 853.354C644.176 854.18 644.658 855.289 644.639 856.439V857.445C644.658 858.595 644.176 859.704 643.299 860.529C642.423 861.354 641.224 861.827 639.966 861.845H636.03C634.772 861.863 633.572 862.337 632.696 863.163C631.82 863.988 631.338 865.098 631.357 866.247V868.779C631.338 869.929 631.82 871.039 632.696 871.864C633.572 872.69 634.772 873.164 636.03 873.182H639.966C641.224 873.2 642.423 873.674 643.3 874.5C644.176 875.325 644.658 876.435 644.639 877.585V878.446C644.657 879.595 644.175 880.703 643.298 881.528C642.422 882.353 641.224 882.827 639.966 882.845H635.462C627.719 882.845 621.441 876.933 621.441 869.64V865.241C621.428 857.949 627.705 852.036 635.462 852.036Z" fill="white"/>
  <path d="M676.089 878.882V860.974C676.089 855.869 680.482 851.729 685.904 851.729H687.816C688.205 851.732 688.586 851.823 688.925 851.995C689.265 852.167 689.552 852.414 689.76 852.714L690.834 854.236C690.919 854.36 691.038 854.462 691.18 854.53C691.321 854.599 691.48 854.634 691.64 854.629C691.8 854.625 691.957 854.583 692.094 854.507C692.23 854.431 692.343 854.323 692.421 854.195L693.276 852.818C693.477 852.49 693.77 852.217 694.124 852.025C694.478 851.834 694.881 851.732 695.293 851.729H698.185C703.607 851.729 708 855.869 708 860.974V878.882C708.009 879.395 707.907 879.904 707.7 880.38C707.494 880.857 707.186 881.292 706.796 881.66C706.405 882.028 705.939 882.322 705.424 882.525C704.909 882.728 704.355 882.837 703.794 882.845H702.755C702.194 882.837 701.64 882.728 701.125 882.525C700.61 882.322 700.144 882.028 699.754 881.66C699.363 881.292 699.056 880.857 698.849 880.38C698.642 879.904 698.541 879.395 698.549 878.882V863.453C698.553 863.225 698.507 862.999 698.415 862.787C698.323 862.575 698.187 862.382 698.013 862.219C697.839 862.055 697.632 861.925 697.403 861.835C697.174 861.744 696.928 861.696 696.678 861.693H695.837C695.334 861.7 694.855 861.89 694.504 862.22C694.154 862.55 693.962 862.993 693.969 863.453V881.085C693.973 881.313 693.927 881.539 693.835 881.751C693.743 881.963 693.607 882.156 693.433 882.319C693.259 882.482 693.052 882.613 692.823 882.703C692.594 882.793 692.348 882.842 692.098 882.845H690.952C690.702 882.842 690.456 882.793 690.227 882.703C689.998 882.613 689.791 882.482 689.617 882.319C689.444 882.156 689.307 881.963 689.215 881.751C689.123 881.539 689.077 881.313 689.081 881.085V863.453C689.088 862.993 688.896 862.55 688.546 862.22C688.196 861.89 687.716 861.7 687.214 861.693H686.677C686.427 861.696 686.181 861.744 685.952 861.835C685.723 861.925 685.516 862.055 685.342 862.219C685.168 862.382 685.032 862.575 684.94 862.787C684.848 862.999 684.802 863.225 684.806 863.453V878.882C684.814 879.395 684.713 879.904 684.506 880.38C684.299 880.857 683.992 881.292 683.601 881.66C683.211 882.028 682.745 882.322 682.23 882.525C681.715 882.728 681.161 882.837 680.6 882.845H680.309C679.747 882.838 679.192 882.73 678.676 882.528C678.159 882.325 677.692 882.031 677.3 881.663C676.908 881.295 676.599 880.86 676.391 880.383C676.184 879.906 676.081 879.396 676.089 878.882Z" fill="white"/>
  <path d="M660.364 852.036C652.524 852.036 646.16 858.025 646.16 865.409V869.621C646.16 877.009 652.521 883 660.364 883C668.208 883 674.568 877.009 674.568 869.621V865.409C674.561 858.025 668.208 852.036 660.364 852.036ZM666.015 868.321C666.041 868.995 665.918 869.668 665.654 870.298C665.389 870.928 664.988 871.504 664.475 871.989C663.962 872.475 663.347 872.861 662.667 873.125C661.987 873.389 661.256 873.525 660.517 873.525C659.778 873.525 659.046 873.389 658.366 873.125C657.686 872.861 657.071 872.475 656.558 871.989C656.045 871.504 655.644 870.928 655.38 870.298C655.115 869.668 654.992 868.995 655.019 868.321V867.026C654.992 866.351 655.115 865.679 655.38 865.049C655.644 864.418 656.045 863.843 656.558 863.357C657.071 862.872 657.686 862.485 658.366 862.221C659.046 861.958 659.778 861.822 660.517 861.822C661.256 861.822 661.987 861.958 662.667 862.221C663.347 862.485 663.962 862.872 664.475 863.357C664.988 863.843 665.389 864.418 665.654 865.049C665.918 865.679 666.041 866.351 666.015 867.026V868.321Z" fill="white"/>
  </g>
  <g clip-path="url(#clip1_0_1)">
  <path d="M685.697 0.0138838H444.618L445.063 0.114503C445.063 0.114503 425.156 4.47591 422.043 25.2629C421.72 27.4418 421.376 28.8159 421.001 29.5202V214.892C421.001 219.292 420.134 223.649 418.448 227.714C416.762 231.779 414.291 235.473 411.176 238.584C408.061 241.695 404.363 244.163 400.292 245.846C396.222 247.53 391.859 248.396 387.454 248.396H322.451C318.046 248.396 313.683 247.53 309.613 245.846C305.543 244.163 301.844 241.695 298.729 238.584C295.614 235.473 293.143 231.779 291.457 227.714C289.771 223.649 288.904 219.292 288.904 214.892V21.696C287.014 16.3492 280.82 3.48358 264.432 1.05479C262.209 0.732112 260.812 0.360854 260.128 0.0138838H26.2819C22.9617 0.0134281 19.6739 0.6662 16.6064 1.93492C13.5389 3.20364 10.7516 5.06345 8.40391 7.40813C6.05618 9.75281 4.19395 12.5364 2.92358 15.6C1.65322 18.6635 0.99959 21.947 1.00005 25.2629V391.49C1.56344 390.867 2.16444 390.28 2.79968 389.73C8.11523 385.15 14.6606 384.04 17.4296 387.25C20.1985 390.459 18.1244 396.757 12.8019 401.337C8.88303 404.73 4.23454 406.222 0.989624 405.434V424.913C1.69896 424.008 2.49738 423.175 3.37293 422.429C9.05326 417.526 16.5749 416.94 20.1673 421.097C23.7596 425.253 22.0677 432.602 16.3873 437.487C11.3567 441.824 4.89116 442.793 0.989624 440.048V493.11C2.82408 491.298 5.15437 490.068 7.68714 489.576C10.2199 489.083 12.8419 489.35 15.2231 490.343C17.6043 491.336 19.6383 493.009 21.0689 495.154C22.4995 497.299 23.2629 499.818 23.2629 502.395C23.2629 504.972 22.4995 507.491 21.0689 509.636C19.6383 511.781 17.6043 513.455 15.2231 514.447C12.8419 515.44 10.2199 515.707 7.68714 515.214C5.15437 514.722 2.82408 513.492 0.989624 511.68V526.947C4.83388 527.006 8.50064 528.572 11.1982 531.308C13.8958 534.044 15.4079 537.73 15.4079 541.57C15.4079 545.409 13.8958 549.095 11.1982 551.831C8.50064 554.567 4.83388 556.134 0.989624 556.193V714.775C0.989168 718.091 1.64279 721.375 2.91316 724.438C4.18353 727.502 6.04576 730.285 8.39348 732.63C10.7412 734.975 13.5284 736.835 16.596 738.103C19.6635 739.372 22.9513 740.025 26.2714 740.024H169.586C169.666 738.952 170.354 737.595 171.504 736.43C173.324 734.615 175.607 733.97 176.618 734.958C177.629 735.947 176.965 738.227 175.162 740.024H266.43L266.082 739.941C266.082 739.941 285.423 735.705 288.939 715.681V596.132C287.897 596.635 286.816 596.698 285.927 596.233C283.867 595.164 283.582 591.691 285.26 588.464C286.212 586.667 287.563 585.314 288.939 584.689V539.66C286.736 538.105 285.201 534.837 285.201 531.062C285.201 527.287 286.736 523.997 288.939 522.443V515.851C288.939 511.451 289.806 507.094 291.492 503.029C293.178 498.964 295.649 495.27 298.764 492.159C301.879 489.048 305.577 486.58 309.648 484.897C313.718 483.213 318.081 482.347 322.486 482.347H387.502C391.908 482.347 396.271 483.213 400.341 484.897C404.411 486.58 408.11 489.048 411.225 492.159C414.34 495.27 416.811 498.964 418.497 503.029C420.182 507.094 421.05 511.451 421.049 515.851V714.286C422.439 718.797 428.304 733.338 445.866 735.961C446.835 736.104 447.665 736.267 448.332 736.405H509.284V679.849L618.656 582.75C620.977 580.762 622.687 578.159 623.589 575.241C624.537 571.969 624.537 567.854 620.74 564.402C619.012 562.834 616.849 561.828 614.535 561.515C607.587 560.474 601.378 566.026 600.913 573.021L600.791 574.714L509.284 575.408C509.284 575.408 506.536 545.173 523.733 523.879C525.909 521.211 528.229 518.663 530.682 516.246C548.81 498.422 572.838 487.847 598.14 485.182C612.569 483.669 628.713 482.659 635.87 484.7C650.323 488.835 671.481 488.999 699.855 519.07C702.905 522.301 706.786 527.346 711.031 533.359V25.249C711.028 21.9306 710.37 18.6453 709.094 15.581C707.819 12.5167 705.952 9.73333 703.599 7.38989C701.247 5.04646 698.455 3.18888 695.383 1.92329C692.311 0.65769 689.02 0.00886839 685.697 0.0138838ZM277.363 573.708C273.708 573.708 270.738 569.43 270.738 564.163C270.738 558.896 273.708 554.597 277.363 554.597C281.018 554.597 283.992 558.875 283.992 564.163C283.992 569.45 281.021 573.708 277.363 573.708ZM280.49 609.675C278.329 612.603 275.074 613.873 273.194 612.502C271.314 611.132 271.579 607.645 273.739 604.71C275.9 601.774 279.177 600.511 281.035 601.885C282.894 603.259 282.658 606.75 280.497 609.675H280.49ZM278.43 483.228C280.955 483.228 282.995 485.81 282.995 488.999C282.995 492.187 280.955 494.793 278.43 494.793C275.904 494.793 273.84 492.187 273.84 488.999C273.84 485.81 275.897 483.228 278.437 483.228H278.43ZM266.301 456.546C267.576 455.676 269.699 456.626 271.071 458.628C272.444 460.63 272.506 462.986 271.235 463.833C269.963 464.679 267.84 463.753 266.464 461.751C265.089 459.749 265.037 457.393 266.308 456.546H266.301ZM271.801 508.8C276.144 508.8 279.642 512.856 279.642 517.842C279.642 522.828 276.144 526.884 271.801 526.884C267.458 526.884 263.96 522.845 263.96 517.842C263.96 512.839 267.482 508.8 271.808 508.8H271.801ZM247.912 588.201C242.982 588.201 239.001 583.923 239.001 578.656C239.001 573.389 242.982 569.086 247.912 569.086C252.842 569.086 256.824 573.364 256.824 578.656C256.824 583.947 252.849 588.201 247.919 588.201H247.912ZM248.982 611.836C246.78 614.841 243.465 616.173 241.607 614.803C239.748 613.432 240.029 609.876 242.232 606.871C244.434 603.866 247.77 602.531 249.628 603.905C251.487 605.279 251.23 608.828 248.989 611.836H248.982ZM206.249 605.938C200.552 605.938 195.945 600.993 195.945 594.88C195.945 588.766 200.552 583.818 206.249 583.818C211.947 583.818 216.578 588.763 216.578 594.88C216.578 600.997 211.947 605.92 206.246 605.92L206.249 605.938ZM212.01 648.06C209.807 651.877 205.502 653.49 202.372 651.693C199.242 649.895 198.492 645.336 200.694 641.54C202.897 637.745 207.222 636.114 210.332 637.908C213.441 639.701 214.209 644.25 212.006 648.043L212.01 648.06ZM50.8376 648.501C44.8133 648.501 39.9425 642.63 39.9425 635.361C39.9425 628.092 44.8064 622.225 50.8376 622.225C56.8688 622.225 61.7292 628.123 61.7292 635.361C61.7292 642.599 56.8584 648.501 50.8376 648.501ZM53.8949 674.28C49.6911 678.118 43.5279 678.198 40.1301 674.485C36.7323 670.773 37.4237 664.635 41.6483 660.801C45.8729 656.967 52.0362 656.883 55.4096 660.617C58.7831 664.35 58.1334 670.446 53.8949 674.28ZM58.665 618.151C55.784 618.147 52.969 617.29 50.5755 615.689C48.1821 614.087 46.3178 611.813 45.2182 609.154C44.1185 606.494 43.833 603.569 44.3975 600.748C44.9621 597.926 46.3515 595.335 48.3901 593.302C50.4287 591.269 53.025 589.885 55.8509 589.325C58.6768 588.766 61.6054 589.055 64.2667 590.157C66.9279 591.259 69.2023 593.124 70.8025 595.517C72.4026 597.909 73.2567 600.722 73.2567 603.599C73.2511 607.458 71.7133 611.157 68.9804 613.885C66.2476 616.613 62.5428 618.147 58.6789 618.151H58.665ZM187.113 544.805C187.116 542.685 187.747 540.613 188.927 538.851C190.107 537.088 191.784 535.715 193.746 534.904C195.707 534.092 197.865 533.88 199.948 534.293C202.03 534.706 203.943 535.725 205.446 537.223C206.948 538.721 207.972 540.63 208.389 542.709C208.806 544.788 208.596 546.944 207.787 548.904C206.978 550.865 205.606 552.541 203.843 553.723C202.08 554.905 200.007 555.538 197.884 555.544C196.471 555.545 195.072 555.268 193.767 554.729C192.461 554.19 191.275 553.399 190.276 552.402C189.277 551.404 188.485 550.22 187.944 548.917C187.404 547.613 187.126 546.216 187.127 544.805H187.113ZM192.735 579.849C192.737 582.175 192.048 584.449 190.756 586.384C189.464 588.319 187.627 589.827 185.476 590.719C183.325 591.611 180.958 591.846 178.674 591.394C176.39 590.943 174.291 589.825 172.642 588.182C170.994 586.539 169.871 584.444 169.415 582.164C168.959 579.883 169.19 577.519 170.079 575.369C170.968 573.22 172.476 571.382 174.411 570.088C176.346 568.794 178.622 568.103 180.95 568.101C184.074 568.097 187.071 569.332 189.284 571.534C191.496 573.737 192.742 576.726 192.749 579.846L192.735 579.849ZM178.991 501.132C173.109 501.132 168.36 495.865 168.36 489.366C168.36 482.868 173.109 477.601 178.991 477.601C184.873 477.601 189.601 482.868 189.601 489.366C189.601 495.865 184.873 501.129 179.005 501.129L178.991 501.132ZM180.144 525.476C180.144 533.109 174.443 539.281 167.411 539.281C160.379 539.281 154.678 533.105 154.678 525.476C154.678 517.846 160.379 511.67 167.411 511.67C174.443 511.67 180.158 517.842 180.158 525.472L180.144 525.476ZM111.355 491.729C111.355 494.524 110.525 497.255 108.971 499.579C107.416 501.902 105.207 503.713 102.622 504.782C100.037 505.852 97.1922 506.131 94.4479 505.586C91.7037 505.041 89.1829 503.696 87.2044 501.72C85.2259 499.744 83.8786 497.226 83.3327 494.486C82.7869 491.745 83.067 488.904 84.1378 486.322C85.2085 483.741 87.0218 481.534 89.3482 479.982C91.6747 478.429 94.4099 477.601 97.2079 477.601C99.0661 477.6 100.906 477.964 102.624 478.674C104.341 479.383 105.901 480.423 107.216 481.735C108.53 483.046 109.574 484.604 110.285 486.318C110.997 488.032 111.364 489.87 111.365 491.726L111.355 491.729ZM98.7817 458.285C98.781 455.957 99.4716 453.681 100.766 451.745C102.061 449.809 103.901 448.3 106.054 447.409C108.207 446.518 110.577 446.284 112.863 446.738C115.149 447.191 117.249 448.312 118.898 449.958C120.546 451.604 121.669 453.701 122.124 455.984C122.579 458.267 122.346 460.634 121.454 462.784C120.562 464.935 119.052 466.773 117.114 468.067C115.176 469.36 112.897 470.051 110.566 470.051C107.443 470.048 104.448 468.807 102.24 466.6C100.032 464.393 98.7921 461.401 98.7921 458.281L98.7817 458.285ZM76.856 458.285C74.5251 458.285 72.2463 457.596 70.3079 456.303C68.3695 455.01 66.8585 453.172 65.966 451.022C65.0735 448.871 64.8397 446.505 65.294 444.222C65.7483 441.938 66.8704 439.841 68.5183 438.195C70.1663 436.548 72.2661 435.427 74.5522 434.973C76.8382 434.518 79.2079 434.751 81.3614 435.642C83.515 436.533 85.3557 438.041 86.6507 439.977C87.9458 441.912 88.637 444.188 88.637 446.516C88.637 449.634 87.3972 452.625 85.1901 454.832C82.983 457.038 79.9891 458.279 76.8664 458.281L76.856 458.285ZM72.8155 478.732C72.8161 481.527 71.9867 484.259 70.4322 486.583C68.8777 488.907 66.6678 490.719 64.0823 491.788C61.4967 492.858 58.6516 493.138 55.9068 492.592C53.1621 492.046 50.641 490.7 48.6626 488.723C46.6841 486.746 45.3373 484.228 44.7923 481.486C44.2473 478.745 44.5288 475.904 45.601 473.322C46.6733 470.74 48.4881 468.534 50.8161 466.983C53.144 465.431 55.8803 464.604 58.6789 464.607C62.4297 464.607 66.027 466.094 68.6799 468.742C71.3327 471.39 72.824 474.982 72.8259 478.728L72.8155 478.732ZM80.351 515.445C82.9377 515.444 85.4664 516.209 87.6175 517.644C89.7685 519.079 91.4451 521.119 92.4353 523.505C93.4255 525.892 93.6848 528.518 93.1803 531.052C92.6758 533.585 91.4303 535.913 89.6013 537.739C87.7722 539.566 85.4418 540.81 82.9048 541.314C80.3678 541.818 77.7382 541.559 75.3485 540.57C72.9589 539.581 70.9166 537.906 69.48 535.758C68.0433 533.61 67.2769 531.084 67.2776 528.501C67.2762 526.785 67.6137 525.086 68.2708 523.5C68.928 521.914 69.8918 520.474 71.1071 519.261C72.3224 518.048 73.7654 517.086 75.3534 516.43C76.9413 515.775 78.6432 515.439 80.3614 515.441L80.351 515.445ZM68.1913 551.876C71.0874 551.876 73.9185 552.734 76.3266 554.341C78.7346 555.948 80.6116 558.232 81.72 560.904C82.8285 563.576 83.1187 566.516 82.5539 569.353C81.9892 572.19 80.5948 574.796 78.5472 576.841C76.4996 578.887 73.8907 580.28 71.0503 580.845C68.2099 581.409 65.2656 581.12 62.5897 580.014C59.9139 578.907 57.6266 577.033 56.0171 574.629C54.4076 572.224 53.5482 569.397 53.5475 566.505C53.5466 564.583 53.9248 562.68 54.6604 560.905C55.3961 559.129 56.4749 557.516 57.8351 556.156C59.1953 554.797 60.8103 553.719 62.5879 552.984C64.3654 552.248 66.2706 551.87 68.1947 551.87L68.1913 551.876ZM89.978 601.084C92.6135 601.079 95.1913 601.855 97.3849 603.314C99.5786 604.773 101.29 606.849 102.302 609.279C103.313 611.709 103.581 614.385 103.069 616.967C102.558 619.549 101.292 621.922 99.4297 623.784C97.5678 625.647 95.1945 626.917 92.6099 627.432C90.0254 627.947 87.3459 627.685 84.9106 626.679C82.4753 625.673 80.3935 623.968 78.9288 621.78C77.4641 619.591 76.6823 617.019 76.6823 614.387C76.6795 610.861 78.0789 607.478 80.5728 604.982C83.0667 602.486 86.4509 601.081 89.9815 601.077L89.978 601.084ZM102.589 594.425C99.7026 594.429 96.8794 593.578 94.4771 591.98C92.0747 590.381 90.2012 588.106 89.0936 585.444C87.986 582.781 87.6941 579.851 88.2547 577.022C88.8154 574.194 90.2035 571.596 92.2433 569.555C94.2832 567.515 96.8831 566.125 99.7142 565.561C102.545 564.997 105.48 565.285 108.148 566.387C110.815 567.49 113.095 569.357 114.7 571.754C116.304 574.151 117.16 576.969 117.16 579.853C117.158 583.712 115.624 587.413 112.893 590.144C110.162 592.875 106.457 594.412 102.593 594.418L102.589 594.425ZM116.736 556.762C113.938 556.762 111.203 555.933 108.877 554.381C106.55 552.828 104.737 550.622 103.666 548.04C102.596 545.458 102.315 542.617 102.861 539.877C103.407 537.136 104.754 534.619 106.733 532.643C108.711 530.667 111.232 529.321 113.976 528.776C116.721 528.231 119.565 528.511 122.15 529.58C124.735 530.649 126.945 532.46 128.499 534.784C130.054 537.107 130.883 539.839 130.883 542.633C130.881 546.378 129.39 549.969 126.738 552.617C124.086 555.265 120.49 556.753 116.74 556.755L116.736 556.762ZM116.736 507.596C116.736 504.802 117.566 502.07 119.121 499.747C120.675 497.423 122.885 495.612 125.47 494.543C128.055 493.474 130.899 493.194 133.643 493.739C136.388 494.284 138.908 495.63 140.887 497.606C142.865 499.582 144.213 502.099 144.759 504.84C145.304 507.58 145.024 510.421 143.954 513.003C142.883 515.585 141.07 517.791 138.743 519.344C136.417 520.896 133.681 521.725 130.883 521.725C129.025 521.726 127.184 521.361 125.467 520.65C123.75 519.94 122.19 518.899 120.877 517.586C119.563 516.273 118.521 514.714 117.812 512.999C117.102 511.284 116.738 509.445 116.74 507.589L116.736 507.596ZM148.97 547.741C151.504 547.741 153.982 548.491 156.089 549.897C158.196 551.303 159.838 553.302 160.808 555.64C161.777 557.978 162.031 560.551 161.537 563.033C161.042 565.515 159.822 567.796 158.03 569.585C156.238 571.375 153.955 572.593 151.47 573.087C148.984 573.581 146.408 573.328 144.067 572.359C141.726 571.391 139.725 569.75 138.317 567.646C136.909 565.542 136.157 563.068 136.157 560.537C136.155 558.855 136.485 557.189 137.128 555.635C137.771 554.081 138.715 552.669 139.906 551.48C141.096 550.29 142.51 549.347 144.066 548.705C145.622 548.062 147.29 547.732 148.974 547.734L148.97 547.741ZM145.798 485.394C143.467 485.394 141.189 484.703 139.251 483.41C137.313 482.116 135.802 480.278 134.91 478.127C134.019 475.977 133.785 473.61 134.24 471.327C134.695 469.044 135.818 466.947 137.466 465.301C139.115 463.655 141.215 462.535 143.501 462.081C145.787 461.627 148.157 461.861 150.31 462.752C152.464 463.643 154.304 465.152 155.598 467.088C156.893 469.024 157.583 471.3 157.583 473.628C157.58 476.747 156.338 479.737 154.129 481.942C151.92 484.147 148.925 485.386 145.802 485.387L145.798 485.394ZM122.354 438.126C120.026 438.122 117.752 437.428 115.818 436.134C113.885 434.839 112.379 433.001 111.491 430.852C110.603 428.703 110.373 426.339 110.83 424.059C111.287 421.779 112.41 419.686 114.058 418.044C115.706 416.401 117.804 415.284 120.088 414.832C122.371 414.381 124.738 414.615 126.888 415.506C129.038 416.397 130.876 417.905 132.168 419.839C133.46 421.773 134.15 424.046 134.149 426.37C134.147 427.915 133.841 429.444 133.247 430.871C132.654 432.297 131.785 433.593 130.69 434.684C129.595 435.775 128.295 436.639 126.866 437.229C125.436 437.818 123.904 438.121 122.358 438.119L122.354 438.126ZM105.258 401.614C103.437 401.616 101.656 401.079 100.141 400.07C98.6258 399.062 97.4441 397.627 96.7453 395.948C96.0466 394.268 95.8622 392.42 96.2154 390.636C96.5686 388.852 97.4436 387.213 98.7297 385.925C100.016 384.638 101.655 383.76 103.441 383.404C105.226 383.047 107.078 383.227 108.761 383.921C110.444 384.615 111.883 385.792 112.896 387.303C113.91 388.813 114.452 390.591 114.454 392.409C114.453 394.845 113.485 397.182 111.761 398.906C110.038 400.63 107.7 401.602 105.261 401.607L105.258 401.614ZM101.783 415.982C101.785 418.029 101.18 420.03 100.042 421.732C98.9051 423.435 97.2878 424.762 95.3949 425.546C93.5021 426.331 91.4188 426.536 89.4089 426.138C87.3989 425.739 85.5526 424.753 84.1036 423.306C82.6545 421.859 81.6679 420.015 81.2687 418.008C80.8694 416.001 81.0754 413.92 81.8605 412.03C82.6457 410.139 83.9747 408.524 85.6795 407.388C87.3842 406.253 89.388 405.647 91.4372 405.649C94.1825 405.648 96.8162 406.734 98.76 408.67C100.704 410.606 101.799 413.234 101.804 415.975L101.783 415.982ZM77.9781 389.484C73.552 391.098 69.0459 389.887 67.9029 386.778C66.7599 383.669 69.3968 379.838 73.8091 378.201C78.2213 376.563 82.7413 377.798 83.8843 380.907C85.0273 384.016 82.4251 387.86 77.999 389.477L77.9781 389.484ZM70.2967 398.384C73.076 401.573 70.9915 407.891 65.669 412.471C60.3465 417.051 53.808 418.165 51.0565 414.955C48.3049 411.746 50.3616 405.448 55.6667 400.865C60.9719 396.281 67.5485 395.167 70.3175 398.377L70.2967 398.384ZM55.1004 434.028C55.1011 436.356 54.4105 438.632 53.1158 440.568C51.8212 442.504 49.9807 444.013 47.8273 444.904C45.6738 445.795 43.304 446.029 41.0177 445.575C38.7314 445.121 36.6313 444 34.983 442.354C33.3347 440.708 32.2123 438.61 31.7577 436.327C31.3031 434.043 31.5367 431.677 32.4291 429.526C33.3215 427.375 34.8325 425.537 36.771 424.244C38.7095 422.951 40.9883 422.262 43.3194 422.262C44.8677 422.26 46.4013 422.562 47.8326 423.151C49.2639 423.741 50.5648 424.607 51.6609 425.699C52.757 426.791 53.6268 428.088 54.2205 429.516C54.8143 430.944 55.1204 432.475 55.1213 434.021L55.1004 434.028ZM45.602 501.136C48.4334 501.138 51.2007 501.978 53.5542 503.55C55.9076 505.123 57.7415 507.356 58.8241 509.969C59.9067 512.582 60.1894 515.457 59.6365 518.23C59.0836 521.004 57.72 523.551 55.7178 525.551C53.7156 527.55 51.1649 528.912 48.3879 529.464C45.611 530.017 42.7324 529.734 40.1161 528.653C37.4997 527.572 35.263 525.74 33.6886 523.39C32.1143 521.04 31.2729 518.276 31.2708 515.448C31.2695 513.566 31.6399 511.702 32.3608 509.963C33.0817 508.225 34.1391 506.645 35.4722 505.315C36.8054 503.985 38.3882 502.93 40.13 502.212C41.8718 501.493 43.7383 501.125 45.6228 501.129L45.602 501.136ZM67.1039 669.02C71.3285 665.204 77.4917 665.127 80.8652 668.84C84.2386 672.553 83.5751 678.67 79.3713 682.504C75.1675 686.338 68.9834 686.417 65.5891 682.705C62.1948 678.992 62.9001 672.848 67.1247 669.013L67.1039 669.02ZM80.3406 657.678C78.2967 657.682 76.2976 657.08 74.5962 655.949C72.8948 654.818 71.5677 653.208 70.7828 651.324C69.998 649.439 69.7906 647.364 70.1871 645.362C70.5836 643.359 71.566 641.519 73.01 640.075C74.454 638.63 76.2948 637.646 78.2991 637.246C80.3035 636.847 82.3815 637.051 84.27 637.831C86.1585 638.612 87.7726 639.935 88.9081 641.632C90.0435 643.329 90.6492 645.325 90.6486 647.366C90.6449 650.093 89.5609 652.707 87.6334 654.638C85.7059 656.569 83.0915 657.659 80.3614 657.671L80.3406 657.678ZM90.4471 682.181C93.7615 679.194 98.6914 679.235 101.46 682.282C104.229 685.328 103.805 690.234 100.512 693.242C97.2183 696.251 92.2849 696.188 89.4951 693.142C86.7053 690.095 87.1744 685.161 90.4679 682.174L90.4471 682.181ZM96.5304 665.467C93.0736 662.483 93.3168 656.568 97.0342 652.283C100.752 647.997 106.592 646.915 110.028 649.902C113.464 652.89 113.241 658.781 109.524 663.087C105.807 667.393 99.9873 668.43 96.5513 665.46L96.5304 665.467ZM107.867 627.443C107.865 625.135 108.548 622.878 109.83 620.958C111.113 619.038 112.936 617.541 115.071 616.656C117.205 615.771 119.554 615.538 121.821 615.986C124.088 616.435 126.171 617.545 127.806 619.175C129.441 620.806 130.556 622.885 131.008 625.148C131.461 627.411 131.231 629.758 130.348 631.891C129.465 634.024 127.968 635.847 126.048 637.131C124.127 638.414 121.868 639.1 119.557 639.101C116.462 639.097 113.495 637.866 111.307 635.679C109.119 633.492 107.889 630.527 107.888 627.436L107.867 627.443ZM120.881 595.615C120.881 593.282 121.574 591.001 122.872 589.061C124.17 587.121 126.015 585.609 128.173 584.716C130.331 583.824 132.707 583.59 134.998 584.045C137.289 584.5 139.394 585.624 141.046 587.274C142.698 588.924 143.823 591.026 144.279 593.314C144.735 595.602 144.501 597.974 143.607 600.13C142.713 602.286 141.199 604.128 139.256 605.424C137.314 606.721 135.03 607.412 132.693 607.412C129.563 607.407 126.563 606.161 124.352 603.947C122.141 601.734 120.9 598.735 120.902 595.609L120.881 595.615ZM145.013 634.476C147.054 634.478 149.048 635.085 150.744 636.219C152.44 637.353 153.76 638.963 154.54 640.847C155.319 642.731 155.521 644.803 155.121 646.802C154.721 648.8 153.736 650.635 152.291 652.075C150.847 653.515 149.007 654.494 147.005 654.89C145.003 655.286 142.929 655.08 141.044 654.298C139.16 653.516 137.549 652.193 136.417 650.498C135.285 648.802 134.682 646.809 134.684 644.771C134.683 643.415 134.951 642.073 135.471 640.821C135.991 639.569 136.754 638.432 137.716 637.476C138.678 636.519 139.82 635.762 141.076 635.248C142.331 634.734 143.677 634.473 145.034 634.48L145.013 634.476ZM151.882 619.966C148.122 616.496 148.81 609.671 153.421 604.699C158.031 599.727 164.795 598.485 168.558 601.955C172.32 605.424 171.629 612.249 167.019 617.221C162.408 622.193 155.644 623.439 151.902 619.969L151.882 619.966ZM161.463 652.258C165.202 647.959 171.021 646.891 174.478 649.878C177.935 652.865 177.691 658.757 173.953 663.063C170.215 667.369 164.392 668.434 160.956 665.464C157.52 662.494 157.774 656.561 161.484 652.262L161.463 652.258ZM176.781 627.433C176.783 625.396 177.388 623.405 178.522 621.712C179.655 620.019 181.265 618.699 183.149 617.92C185.033 617.14 187.106 616.935 189.107 617.331C191.107 617.728 192.945 618.707 194.388 620.145C195.832 621.584 196.816 623.418 197.217 625.415C197.618 627.412 197.417 629.482 196.64 631.365C195.863 633.249 194.545 634.859 192.852 635.995C191.159 637.13 189.167 637.739 187.127 637.745C184.39 637.743 181.765 636.656 179.83 634.723C177.894 632.791 176.805 630.17 176.802 627.436L176.781 627.433ZM215.484 562.969C215.483 561.304 215.977 559.676 216.903 558.291C217.829 556.906 219.145 555.827 220.685 555.19C222.226 554.552 223.921 554.385 225.556 554.71C227.191 555.034 228.693 555.836 229.872 557.013C231.051 558.191 231.854 559.691 232.179 561.324C232.504 562.957 232.337 564.65 231.699 566.188C231.06 567.727 229.979 569.041 228.593 569.966C227.206 570.891 225.576 571.384 223.909 571.383C221.679 571.375 219.544 570.485 217.969 568.909C216.394 567.333 215.508 565.199 215.505 562.973L215.484 562.969ZM231.691 531.339C231.691 526.357 235.207 522.297 239.532 522.297C243.858 522.297 247.408 526.367 247.408 531.343C247.408 536.318 243.893 540.385 239.546 540.385C235.2 540.385 231.712 536.349 231.712 531.343L231.691 531.339ZM244.546 489.439C247.672 487.01 252.689 488.27 255.743 492.215C258.797 496.16 258.734 501.319 255.601 503.741C252.467 506.163 247.457 504.911 244.407 500.966C241.356 497.021 241.454 491.847 244.584 489.443L244.546 489.439ZM256.511 545.489C256.511 542.685 258.571 540.381 261.097 540.381C263.623 540.381 265.686 542.685 265.686 545.489C265.686 548.292 263.626 550.617 261.097 550.617C258.568 550.617 256.549 548.32 256.549 545.492L256.511 545.489ZM260.089 464.676C262.372 468.631 262.452 472.871 260.249 474.141C258.046 475.411 254.43 473.211 252.147 469.256C249.865 465.301 249.781 461.064 251.963 459.791C254.145 458.517 257.831 460.724 260.128 464.679L260.089 464.676ZM249.58 434.562C251.338 433.633 253.964 435.149 255.458 437.952C256.952 440.756 256.733 443.785 254.975 444.715C253.217 445.645 250.57 444.128 249.069 441.325C247.568 438.521 247.86 435.513 249.618 434.566L249.58 434.562ZM239.998 413.428C241.092 412.339 243.375 412.866 245.091 414.601C246.807 416.336 247.335 418.598 246.245 419.667C245.154 420.736 242.888 420.233 241.172 418.515C239.456 416.798 238.945 414.525 240.036 413.432L239.998 413.428ZM232.744 454.683C229.773 456.966 225.024 455.776 222.113 452.039C219.201 448.302 219.285 443.365 222.255 441.103C225.226 438.841 229.996 439.993 232.886 443.747C235.777 447.501 235.752 452.386 232.782 454.687L232.744 454.683ZM230.541 418.598C232.4 422.089 232.118 425.864 229.916 427.033C227.713 428.202 224.437 426.308 222.578 422.814C220.72 419.32 220.984 415.528 223.186 414.379C225.389 413.231 228.721 415.087 230.579 418.602L230.541 418.598ZM216.717 393.509C217.971 392.256 220.72 393.006 222.88 395.164C225.041 397.322 225.792 400.088 224.559 401.34C223.325 402.593 220.556 401.826 218.395 399.664C216.234 397.503 215.522 394.744 216.755 393.512L216.717 393.509ZM215.505 468.51C218.941 465.866 224.437 467.24 227.772 471.577C231.107 475.914 231.045 481.549 227.612 484.193C224.18 486.837 218.698 485.463 215.362 481.147C212.027 476.83 212.128 471.157 215.543 468.513L215.505 468.51ZM220.66 508.797C220.66 515.042 216.293 520.08 210.877 520.08C205.461 520.08 201.097 515.032 201.097 508.797C201.097 502.562 205.482 497.534 210.877 497.534C216.273 497.534 220.699 502.582 220.699 508.8L220.66 508.797ZM204.148 437.144C200.791 439.708 195.462 438.376 192.203 434.16C188.944 429.944 189.01 424.445 192.346 421.867C195.681 419.289 201.031 420.635 204.29 424.854C207.549 429.073 207.521 434.566 204.186 437.147L204.148 437.144ZM204.936 410.24C203.421 412.322 199.197 411.916 195.497 409.272C191.797 406.628 190.042 402.773 191.557 400.674C193.072 398.575 197.276 398.998 200.976 401.625C204.676 404.251 206.489 408.127 204.974 410.243L204.936 410.24ZM190.084 379.828C191.356 378.051 194.892 378.395 198.005 380.616C201.118 382.836 202.595 386.084 201.32 387.86C200.045 389.637 196.511 389.276 193.398 387.055C190.285 384.835 188.805 381.584 190.084 379.828ZM197.884 452.73C201.483 457.414 201.42 463.507 197.703 466.373C193.985 469.239 188.062 467.761 184.445 463.066C180.829 458.372 180.909 452.286 184.626 449.441C188.343 446.595 194.253 448.049 197.88 452.73H197.884ZM177.209 366.445C178.119 364.672 181.433 364.572 184.626 366.227C187.819 367.882 189.639 370.626 188.708 372.403C187.777 374.179 184.487 374.28 181.291 372.621C178.094 370.963 176.277 368.222 177.205 366.445H177.209ZM178.966 395.469C177.271 398.741 172.115 399.425 167.47 397.024C162.825 394.623 160.414 390.022 162.113 386.75C163.812 383.478 168.943 382.795 173.578 385.196C178.213 387.597 180.641 392.201 178.966 395.469ZM170.177 369.252C173.349 370.907 174.985 374.037 173.835 376.275C172.685 378.513 169.166 378.981 165.994 377.347C162.822 375.713 161.165 372.562 162.315 370.321C163.465 368.08 166.98 367.618 170.173 369.252H170.177ZM158.052 359.162C158.84 357.667 161.224 357.344 163.367 358.468C165.511 359.593 166.619 361.699 165.851 363.212C165.084 364.724 162.679 365.026 160.536 363.905C158.392 362.785 157.28 360.675 158.048 359.162H158.052ZM157.385 410.243C159.202 406.774 164.416 405.906 169.086 408.307C173.755 410.708 176.059 415.472 174.259 418.942C172.459 422.412 167.227 423.282 162.558 420.881C157.888 418.48 155.582 413.716 157.381 410.243H157.385ZM165.146 436.381C169.228 441.668 169.145 448.552 164.962 451.783C160.779 455.013 154.091 453.337 150.023 448.049C145.955 442.761 146.041 435.905 150.224 432.668C154.407 429.431 161.078 431.114 165.143 436.381H165.146ZM137.154 357.546C139.215 355.165 143.703 355.63 147.139 358.586C150.575 361.543 151.725 365.911 149.665 368.302C147.605 370.692 143.137 370.217 139.68 367.261C136.223 364.304 135.091 359.947 137.151 357.546H137.154ZM134.649 376.559C136.105 373.753 140.309 373.048 144.068 374.984C147.827 376.92 149.686 380.779 148.237 383.582C146.788 386.386 142.578 387.073 138.818 385.137C135.059 383.2 133.19 379.346 134.646 376.559H134.649ZM134.67 393.655C136.491 393.655 138.271 394.194 139.786 395.205C141.3 396.215 142.48 397.651 143.176 399.332C143.873 401.012 144.055 402.861 143.7 404.644C143.344 406.428 142.467 408.066 141.179 409.352C139.891 410.638 138.25 411.513 136.464 411.868C134.678 412.222 132.827 412.04 131.145 411.343C129.462 410.647 128.025 409.468 127.014 407.955C126.002 406.443 125.463 404.665 125.464 402.846C125.463 401.639 125.701 400.443 126.163 399.328C126.626 398.213 127.303 397.199 128.158 396.346C129.013 395.492 130.028 394.815 131.144 394.353C132.261 393.892 133.458 393.654 134.667 393.655H134.67ZM117.647 351.189C121.1 349.916 124.595 350.745 125.446 353.066C126.297 355.387 124.175 358.271 120.718 359.523C117.261 360.776 113.769 359.967 112.915 357.646C112.06 355.325 114.193 352.459 117.65 351.189H117.647ZM114.454 365.963C115.585 365.964 116.69 366.299 117.63 366.927C118.57 367.555 119.302 368.447 119.735 369.491C120.167 370.535 120.28 371.683 120.059 372.79C119.838 373.898 119.293 374.915 118.493 375.714C117.693 376.512 116.674 377.056 115.565 377.276C114.456 377.496 113.306 377.383 112.261 376.95C111.216 376.518 110.324 375.786 109.695 374.847C109.067 373.908 108.732 372.804 108.732 371.674C108.731 370.923 108.879 370.18 109.167 369.486C109.455 368.793 109.876 368.163 110.408 367.632C110.94 367.102 111.571 366.681 112.266 366.395C112.961 366.108 113.706 365.962 114.457 365.963H114.454ZM100.102 349.534C103.555 348.889 106.626 349.815 106.95 351.592C107.273 353.368 104.747 355.308 101.294 355.953C97.8402 356.598 94.7655 355.668 94.4424 353.892C94.1193 352.115 96.652 350.179 100.102 349.534ZM96.6833 363.441C97.1905 365.699 94.0151 368.364 89.5924 369.374C85.1697 370.383 81.1431 369.353 80.6185 367.073C80.0939 364.794 83.2867 362.146 87.7129 361.14C92.139 360.134 96.1656 361.158 96.6902 363.441H96.6833ZM86.3857 348.372C86.4229 348.476 86.4497 348.584 86.4656 348.694C86.8895 350.977 83.6168 353.5 79.1489 354.326C75.2682 355.054 71.7732 354.246 70.6198 352.532V352.535C70.585 352.437 70.5583 352.336 70.5398 352.233C70.116 349.95 73.4095 347.428 77.8774 346.602C81.699 345.908 85.1524 346.661 86.344 348.316C86.3621 348.331 86.3764 348.35 86.3857 348.372ZM68.4866 357.546C72.9127 356.536 76.9324 357.546 77.4605 359.829C77.9885 362.112 74.7923 364.752 70.3661 365.762C65.94 366.771 61.9169 365.741 61.3922 363.479C60.8676 361.216 64.0535 358.534 68.4866 357.546ZM61.0101 372.604C62.5665 375.529 60.343 379.748 56.0558 382.028C51.7687 384.307 47.0021 383.783 45.4456 380.858C43.8892 377.933 46.1127 373.714 50.3998 371.431C54.687 369.148 59.4536 369.676 61.0031 372.604H61.0101ZM46.8214 353.045C51.2476 352.036 55.2707 353.066 55.7744 355.325C56.2782 357.584 53.1271 360.252 48.6801 361.262C44.2331 362.271 40.2343 361.241 39.7271 358.978C39.2198 356.716 42.3675 354.055 46.8145 353.045H46.8214ZM27.2998 369.655C30.9755 365.984 35.8464 364.933 38.1915 367.275C40.5366 369.617 39.4665 374.481 35.8082 378.135C32.1498 381.788 27.279 382.857 24.9339 380.515C22.5888 378.173 23.6345 373.308 27.2929 369.655H27.2998ZM28.5922 393.131C33.9078 388.547 40.4566 387.437 43.2256 390.646C45.9945 393.856 43.9204 400.153 38.6153 404.733C33.3102 409.313 26.7544 410.427 23.9854 407.218C21.2165 404.008 23.2906 397.711 28.5853 393.131H28.5922ZM18.9721 374.138C15.7585 377.347 11.6763 378.457 9.83844 376.618C8.00058 374.78 9.10885 370.72 12.3433 367.497C15.5778 364.273 19.6392 363.156 21.4805 364.995C23.3219 366.834 22.1997 370.925 18.9652 374.138H18.9721ZM11.6763 466.355C11.6763 463.561 12.5061 460.829 14.0607 458.505C15.6154 456.182 17.825 454.371 20.4103 453.302C22.9955 452.233 25.8402 451.953 28.5845 452.498C31.3288 453.044 33.8496 454.39 35.8279 456.366C37.8063 458.342 39.1534 460.86 39.6989 463.601C40.2443 466.342 39.9637 469.183 38.8924 471.764C37.8211 474.346 36.0073 476.552 33.6804 478.104C31.3535 479.657 28.618 480.485 25.8198 480.484C23.9586 480.488 22.1147 480.126 20.3942 479.417C18.6737 478.708 17.1103 477.666 15.7939 476.352C14.4775 475.038 13.4339 473.477 12.7231 471.759C12.0123 470.041 11.6483 468.2 11.652 466.341L11.6763 466.355ZM32.5702 538.025C35.4659 538.027 38.2961 538.885 40.7032 540.493C43.1103 542.101 44.9862 544.385 46.0937 547.057C47.2012 549.729 47.4906 552.669 46.9253 555.505C46.3601 558.341 44.9655 560.947 42.918 562.991C40.8704 565.036 38.2618 566.429 35.4218 566.994C32.5818 567.558 29.638 567.269 26.9625 566.163C24.287 565.057 21.9999 563.184 20.3903 560.78C18.7807 558.376 17.9208 555.549 17.9195 552.657C17.9176 548.78 19.4572 545.061 22.1999 542.317C24.9426 539.574 28.6639 538.03 32.5459 538.025H32.5702ZM23.2732 573.326C26.3846 573.327 29.4258 574.25 32.0123 575.977C34.5988 577.705 36.6145 580.159 37.8046 583.03C38.9946 585.901 39.3056 589.06 38.6983 592.108C38.0909 595.155 36.5925 597.955 34.3924 600.152C32.1923 602.349 29.3892 603.846 26.3377 604.452C23.2861 605.059 20.1229 604.748 17.2481 603.56C14.3732 602.371 11.9157 600.358 10.1862 597.775C8.45675 595.192 7.53293 592.155 7.53156 589.047C7.53339 584.883 9.18913 580.889 12.1356 577.941C15.0821 574.994 19.0787 573.334 23.2489 573.326H23.2732ZM23.2732 638.376C17.6554 638.376 13.1077 632.242 13.1077 624.692C13.1077 617.141 17.6554 611.007 23.2732 611.007C28.891 611.007 33.4387 617.124 33.4387 624.692C33.4387 632.259 28.8806 638.376 23.2489 638.376H23.2732ZM33.4387 658.781C33.4387 665.1 29.499 670.204 24.6698 670.204C19.8407 670.204 15.8766 665.1 15.8766 658.781C15.8766 652.463 19.8198 647.359 24.6698 647.359C29.5198 647.359 33.4144 652.484 33.4144 658.781H33.4387ZM3.30693 682.618C3.39057 683.327 3.59626 684.016 3.91491 684.655V679.797C4.95718 676.65 7.08686 674.471 9.63346 674.35C13.4342 674.187 16.6861 678.67 16.9293 684.36C17.1725 690.05 14.3028 694.793 10.502 694.956C6.70123 695.119 3.47021 690.637 3.22702 684.946C3.18445 684.17 3.20304 683.392 3.2826 682.618H3.30693ZM5.00581 712.652C1.18418 708.433 0.33647 702.937 3.14711 700.421C5.95774 697.906 11.3115 699.228 15.1505 703.426C18.9895 707.624 19.8198 713.113 17.0092 715.657C14.1986 718.2 8.82049 716.854 4.98149 712.652H5.00581ZM25.9206 735.094C23.6588 736.749 20.0144 735.618 17.8187 732.592C15.623 729.567 15.696 725.771 17.9785 724.133C20.2611 722.495 23.902 723.609 26.0838 726.638C28.2657 729.667 28.1857 733.46 25.8962 735.094H25.9206ZM21.557 689.499C21.557 683.808 24.6282 679.187 28.4081 679.187C32.188 679.187 35.2592 683.808 35.2592 689.499C35.2592 695.189 32.2089 699.814 28.4081 699.814C24.6073 699.814 21.5326 695.192 21.5326 689.499H21.557ZM30.774 715.677C29.0751 711.458 30.166 707.038 33.1782 705.827C36.1903 704.616 40.0293 707.1 41.7247 711.34C43.4201 715.58 42.3327 719.976 39.2928 721.187C36.2528 722.398 32.4243 719.917 30.7497 715.677H30.774ZM44.2331 738.446C41.9471 739.351 38.9975 737.356 37.6634 733.963C36.3293 730.569 37.0762 727.12 39.3623 726.215C41.6483 725.309 44.5736 727.304 45.9285 730.673C47.2835 734.043 46.4914 737.536 44.2088 738.446H44.2331ZM44.313 694.484C44.0698 688.815 47.5649 684.03 52.1126 683.85C56.6604 683.669 60.5619 688.107 60.7981 693.801C61.0344 699.495 57.5428 704.255 52.9742 704.436C48.4056 704.616 44.5319 700.178 44.2887 694.484H44.313ZM53.1653 723.248C50.9627 720.844 51.4282 716.85 54.2076 714.345C56.987 711.84 60.9996 711.743 63.1815 714.144C65.3633 716.545 64.8977 720.542 62.1392 723.044C59.3807 725.545 55.3228 725.649 53.141 723.248H53.1653ZM65.127 737.436C63.2509 739.313 60.7843 739.865 59.5926 738.688C58.401 737.512 58.9638 735.035 60.8433 733.158C62.7229 731.281 65.1896 730.729 66.3812 731.905C67.5729 733.081 66.9822 735.559 65.1027 737.436H65.127ZM66.079 705.969C64.1786 703.887 64.8873 700.157 67.6562 697.642C70.4252 695.126 74.2017 694.776 76.102 696.854C78.0024 698.933 77.2937 702.645 74.5248 705.182C71.7558 707.718 67.9342 708.048 66.0546 705.969H66.079ZM80.6706 728.05C77.8913 730.573 73.8785 730.653 71.6759 728.252C69.4733 725.851 69.9596 721.853 72.7182 719.352C75.4767 716.85 79.5276 716.746 81.7094 719.151C83.8912 721.555 83.4257 725.549 80.6463 728.05H80.6706ZM92.9381 737.436C91.0585 739.313 88.5918 739.865 87.4002 738.688C86.2085 737.512 86.7713 735.035 88.6509 733.158C90.5304 731.281 92.9971 730.729 94.1888 731.905C95.3804 733.081 94.7933 735.559 92.9137 737.436H92.9381ZM92.7331 714.189C90.3498 716.351 87.0944 716.652 85.4789 714.883C83.8634 713.113 84.4679 709.88 86.8686 707.718C89.2693 705.556 92.4864 705.258 94.1228 707.052C95.7591 708.846 95.0955 712.045 92.7088 714.203L92.7331 714.189ZM106.72 724.563C104.288 726.784 101.12 727.311 99.685 725.715C98.2501 724.119 99.0596 721.052 101.505 718.814C103.951 716.576 107.123 716.087 108.558 717.662C109.993 719.237 109.163 722.36 106.703 724.577L106.72 724.563ZM115.128 734.757C113.307 736.555 111.025 737.221 110.014 736.232C109.003 735.243 109.666 732.943 111.49 731.124C113.314 729.306 115.593 728.661 116.601 729.65C117.608 730.639 116.9 732.956 115.104 734.771L115.128 734.757ZM117.41 702.867C114.117 705.855 109.934 706.642 108.075 704.602C106.217 702.562 107.408 698.489 110.702 695.48C113.995 692.472 118.178 691.705 120.037 693.745C121.896 695.786 120.68 699.873 117.386 702.881L117.41 702.867ZM122.684 667.73C125.978 664.742 130.911 664.78 133.68 667.83C136.449 670.88 136.043 675.783 132.749 678.788C129.455 681.792 124.505 681.737 121.736 678.687C118.967 675.637 119.346 670.748 122.66 667.744L122.684 667.73ZM133.416 714.633C130.102 717.641 125.919 718.408 124.081 716.368C122.243 714.328 123.386 710.251 126.687 707.263C129.987 704.276 134.184 703.488 136.022 705.529C137.86 707.569 136.685 711.649 133.392 714.647L133.416 714.633ZM147.313 736.634C144.019 739.622 139.836 740.409 137.978 738.369C136.119 736.329 137.311 732.256 140.604 729.247C143.898 726.239 148.081 725.472 149.943 727.513C151.805 729.553 150.589 733.64 147.275 736.648L147.313 736.634ZM147.414 691.483C144.103 694.471 139.899 695.199 137.978 693.121C136.057 691.043 137.21 686.875 140.524 683.895C143.839 680.914 148.043 680.162 149.943 682.261C151.843 684.36 150.673 688.492 147.375 691.497L147.414 691.483ZM155.922 697.923C159.219 694.915 163.159 693.888 164.715 695.581C166.272 697.274 164.854 701.112 161.561 704.12C158.267 707.128 154.3 708.179 152.733 706.445C151.166 704.71 152.562 700.924 155.884 697.937L155.922 697.923ZM155.863 719.435C154.307 717.718 155.721 713.904 159.014 710.896C162.308 707.888 166.251 706.861 167.807 708.575C169.364 710.289 167.95 714.106 164.653 717.114C161.356 720.122 157.381 721.166 155.825 719.452L155.863 719.435ZM172.539 730.191C169.892 733.765 166.233 735.562 164.354 734.188C162.474 732.814 163.141 728.8 165.789 725.226C168.436 721.652 172.094 719.838 173.953 721.212C175.812 722.586 175.145 726.617 172.497 730.208L172.539 730.191ZM173.387 681.935C169.934 678.947 170.559 672.591 174.777 667.726C178.994 662.862 185.199 661.349 188.639 664.336C192.078 667.324 191.47 673.659 187.249 678.524C183.028 683.388 176.781 684.932 173.345 681.952L173.387 681.935ZM188.465 689.301C190.001 687.219 192.287 686.293 193.617 687.243C194.948 688.194 194.729 690.675 193.173 692.774C191.616 694.873 189.351 695.779 188.02 694.811C186.69 693.843 186.888 691.396 188.423 689.318L188.465 689.301ZM190.181 711.441C188.323 710.07 188.708 706.396 191.029 703.249C193.35 700.102 196.772 698.627 198.63 699.998C200.489 701.368 200.124 705.043 197.779 708.214C195.434 711.385 191.998 712.832 190.14 711.458L190.181 711.441ZM201.702 729.508C199.881 731.322 197.599 731.988 196.609 730.979C195.618 729.969 196.261 727.71 198.085 725.892C199.909 724.074 202.167 723.432 203.178 724.421C204.189 725.41 203.477 727.728 201.66 729.525L201.702 729.508ZM201.417 719.636C198.769 723.231 195.115 725.025 193.252 723.654C191.39 722.284 192.023 718.266 194.67 714.671C197.317 711.077 200.976 709.283 202.852 710.657C204.728 712.031 204.026 716.083 201.375 719.654L201.417 719.636ZM205.586 688.253C204.029 690.335 201.726 691.24 200.43 690.29C199.134 689.339 199.318 686.858 200.854 684.759C202.39 682.66 204.717 681.754 206.01 682.722C207.302 683.69 207.108 686.171 205.562 688.27L205.586 688.253ZM212.131 671.074C209.352 669.461 209.262 664.395 211.93 659.732C214.598 655.069 219.066 652.63 221.873 654.243C224.68 655.856 224.743 660.922 222.054 665.585C219.365 670.249 214.918 672.709 212.107 671.092L212.131 671.074ZM216.62 689.159C214.74 687.788 215.324 683.853 217.871 680.38C220.417 676.907 224.013 675.217 225.868 676.605C227.724 677.993 227.161 681.893 224.593 685.366C222.026 688.839 218.454 690.55 216.596 689.176L216.62 689.159ZM222.498 694.995C224.823 691.844 228.22 690.39 230.1 691.764C231.979 693.138 231.573 696.809 229.249 699.956C226.924 703.103 223.509 704.581 221.63 703.207C219.75 701.833 220.132 698.18 222.474 695.012L222.498 694.995ZM230.704 713.301C228.62 716.125 225.51 717.357 223.756 716.045C222.002 714.734 222.241 711.424 224.322 708.596C226.403 705.768 229.534 704.54 231.295 705.851C233.056 707.163 232.761 710.49 230.68 713.318L230.704 713.301ZM219.691 624.109C215.286 621.565 214.233 615.167 217.325 609.82C220.417 604.474 226.501 602.187 230.906 604.692C235.311 607.197 236.364 613.634 233.272 619.005C230.18 624.376 224.072 626.669 219.667 624.126L219.691 624.109ZM234.543 634.865C236.746 631.048 241.071 629.435 244.184 631.232C247.297 633.029 248.065 637.588 245.862 641.384C243.66 645.18 239.355 646.832 236.221 645.017C233.088 643.202 232.316 638.678 234.519 634.865H234.543ZM238.81 663.583C236.687 662.032 236.909 658.094 239.334 654.826C241.759 651.557 245.439 650.163 247.558 651.738C249.677 653.313 249.458 657.227 247.054 660.516C244.65 663.805 240.926 665.155 238.785 663.583H238.81ZM242.406 681.931C240.526 680.561 241.071 676.685 243.58 673.274C246.088 669.863 249.66 668.208 251.522 669.579C253.384 670.95 252.856 674.829 250.327 678.253C247.798 681.678 244.24 683.305 242.381 681.931H242.406ZM254.694 693.537C252.189 696.948 248.631 698.603 246.773 697.229C244.914 695.855 245.439 691.983 247.943 688.555C250.448 685.127 254.027 683.489 255.885 684.86C257.744 686.23 257.195 690.137 254.67 693.537H254.694ZM264.335 632.946C262.514 636.096 259.401 637.71 257.386 636.558C255.371 635.406 255.246 631.898 257.063 628.748C258.88 625.597 261.976 623.987 264.012 625.136C266.048 626.284 266.127 629.799 264.31 632.946H264.335ZM257.786 611.25C255.521 609.574 255.806 605.351 258.411 601.785C261.017 598.218 265.012 596.719 267.284 598.395C269.556 600.07 269.286 604.293 266.659 607.86C264.033 611.427 260.044 612.926 257.762 611.25H257.786ZM274.094 669.888C272.009 672.695 268.883 673.927 267.121 672.632C265.36 671.338 265.627 667.99 267.708 665.186C269.789 662.383 272.92 661.13 274.657 662.411C276.394 663.691 276.151 667.077 274.069 669.902L274.094 669.888ZM274.841 653.903C272.336 657.314 268.778 658.969 266.92 657.598C265.061 656.228 265.586 652.348 268.094 648.924C270.602 645.499 274.177 643.858 276.036 645.232C277.895 646.606 277.346 650.527 274.816 653.917L274.841 653.903ZM284.478 624.907C286.601 626.482 286.379 630.417 283.954 633.688C281.529 636.96 277.849 638.327 275.727 636.773C273.604 635.219 273.83 631.263 276.234 627.995C278.638 624.726 282.335 623.338 284.478 624.907Z" fill="white"/>
  <path d="M708.783 606.989L711.007 606.444V669.593L666.607 669.128C665.474 669.115 664.388 668.672 663.57 667.889C662.752 667.106 662.263 666.042 662.201 664.912L662 661.259L708.783 606.989Z" fill="white"/>
  </g>
  <defs>
  <clipPath id="clip0_0_1">
  <rect width="708" height="103" fill="white" transform="translate(0 780)"/>
  </clipPath>
  <clipPath id="clip1_0_1">
  <rect width="710" height="740" fill="white" transform="translate(1)"/>
  </clipPath>
  </defs>
  </svg>
  